<?xml version="1.0" encoding="UTF-8" standalone="no"?>
<!DOCTYPE svg PUBLIC "-//W3C//DTD SVG 1.1//EN"
 "http://www.w3.org/Graphics/SVG/1.1/DTD/svg11.dtd">
<!-- Generated by graphviz version 2.47.0 (20210316.0004)
 -->
<!-- Title: dependencies Pages: 1 -->
<svg width="504pt" height="284pt"
 viewBox="0.00 0.00 504.00 284.00" xmlns="http://www.w3.org/2000/svg" xmlns:xlink="http://www.w3.org/1999/xlink">
<g id="graph0" class="graph" transform="scale(1 1) rotate(0) translate(4 280)">
<title>dependencies</title>
<polygon fill="white" stroke="transparent" points="-4,4 -4,-280 500,-280 500,4 -4,4"/>
<text text-anchor="start" x="227.01" y="-42.4" font-family="Times-12" font-weight="bold" font-size="14.00">Legend</text>
<polygon fill="#ffffb3" stroke="transparent" points="14,-10 14,-30 34,-30 34,-10 14,-10"/>
<text text-anchor="start" x="37.63" y="-15.4" font-family="Times-12" font-size="14.00"> &#160;Declarations</text>
<polygon fill="#8dd3c7" stroke="transparent" points="127,-10 127,-30 147,-30 147,-10 127,-10"/>
<text text-anchor="start" x="150.73" y="-15.4" font-family="Times-12" font-size="14.00"> &#160;Module</text>
<polygon fill="#80b1d3" stroke="transparent" points="213,-10 213,-30 233,-30 233,-10 213,-10"/>
<text text-anchor="start" x="236.78" y="-15.4" font-family="Times-12" font-size="14.00"> &#160;Bootstrap</text>
<polygon fill="#fdb462" stroke="transparent" points="310,-10 310,-30 330,-30 330,-10 310,-10"/>
<text text-anchor="start" x="333.67" y="-15.4" font-family="Times-12" font-size="14.00"> &#160;Providers</text>
<polygon fill="#fb8072" stroke="transparent" points="406,-10 406,-30 426,-30 426,-10 406,-10"/>
<text text-anchor="start" x="429.73" y="-15.4" font-family="Times-12" font-size="14.00"> &#160;Exports</text>
<g id="clust1" class="cluster">
<title>cluster_SharedModule</title>
<polygon fill="none" stroke="black" stroke-dasharray="1,5" points="36,-70 36,-268 460,-268 460,-70 36,-70"/>
</g>
<g id="clust7" class="cluster">
<title>cluster_SharedModule_exports</title>
<polygon fill="none" stroke="black" points="44,-208 44,-260 452,-260 452,-208 44,-208"/>
</g>
<g id="clust2" class="cluster">
<title>cluster_SharedModule_declarations</title>
<polygon fill="none" stroke="black" points="50,-78 50,-130 448,-130 448,-78 50,-78"/>
</g>
<!-- BadgeComponent -->
<g id="node1" class="node">
<title>BadgeComponent</title>
<polygon fill="#ffffb3" stroke="black" points="439.6,-122 322.4,-122 322.4,-86 439.6,-86 439.6,-122"/>
<text text-anchor="middle" x="381" y="-99.8" font-family="Times,serif" font-size="14.00">BadgeComponent</text>
</g>
<!-- SharedModule -->
<g id="node4" class="node">
<title>SharedModule</title>
<polygon fill="#8dd3c7" stroke="black" points="300.42,-187 297.42,-191 276.42,-191 273.42,-187 201.58,-187 201.58,-151 300.42,-151 300.42,-187"/>
<text text-anchor="middle" x="251" y="-164.8" font-family="Times,serif" font-size="14.00">SharedModule</text>
</g>
<!-- BadgeComponent&#45;&gt;SharedModule -->
<g id="edge1" class="edge">
<title>BadgeComponent&#45;&gt;SharedModule</title>
<path fill="none" stroke="black" d="M400.93,-122.02C400.93,-139.37 400.93,-163 400.93,-163 400.93,-163 310.51,-163 310.51,-163"/>
<polygon fill="black" stroke="black" points="310.51,-159.5 300.51,-163 310.51,-166.5 310.51,-159.5"/>
</g>
<!-- IconComponent -->
<g id="node2" class="node">
<title>IconComponent</title>
<polygon fill="#ffffb3" stroke="black" points="304.21,-122 197.79,-122 197.79,-86 304.21,-86 304.21,-122"/>
<text text-anchor="middle" x="251" y="-99.8" font-family="Times,serif" font-size="14.00">IconComponent</text>
</g>
<!-- IconComponent&#45;&gt;SharedModule -->
<g id="edge2" class="edge">
<title>IconComponent&#45;&gt;SharedModule</title>
<path fill="none" stroke="black" d="M251,-122.11C251,-122.11 251,-140.99 251,-140.99"/>
<polygon fill="black" stroke="black" points="247.5,-140.99 251,-150.99 254.5,-140.99 247.5,-140.99"/>
</g>
<!-- NavbarComponent -->
<g id="node3" class="node">
<title>NavbarComponent</title>
<polygon fill="#ffffb3" stroke="black" points="180.03,-122 57.97,-122 57.97,-86 180.03,-86 180.03,-122"/>
<text text-anchor="middle" x="119" y="-99.8" font-family="Times,serif" font-size="14.00">NavbarComponent</text>
</g>
<!-- NavbarComponent&#45;&gt;SharedModule -->
<g id="edge3" class="edge">
<title>NavbarComponent&#45;&gt;SharedModule</title>
<path fill="none" stroke="black" d="M137.92,-122.02C137.92,-139.37 137.92,-163 137.92,-163 137.92,-163 191.73,-163 191.73,-163"/>
<polygon fill="black" stroke="black" points="191.73,-166.5 201.73,-163 191.73,-159.5 191.73,-166.5"/>
</g>
<!-- BadgeComponent  -->
<g id="node5" class="node">
<title>BadgeComponent </title>
<polygon fill="#fb8072" stroke="black" points="444.1,-252 323.9,-252 323.9,-216 444.1,-216 444.1,-252"/>
<text text-anchor="middle" x="384" y="-229.8" font-family="Times,serif" font-size="14.00">BadgeComponent </text>
</g>
<!-- SharedModule&#45;&gt;BadgeComponent  -->
<g id="edge4" class="edge">
<title>SharedModule&#45;&gt;BadgeComponent </title>
<path fill="none" stroke="black" stroke-dasharray="5,2" d="M300.47,-175C330.2,-175 362.32,-175 362.32,-175 362.32,-175 362.32,-205.98 362.32,-205.98"/>
<polygon fill="black" stroke="black" points="358.82,-205.98 362.32,-215.98 365.82,-205.98 358.82,-205.98"/>
</g>
<!-- IconComponent  -->
<g id="node6" class="node">
<title>IconComponent </title>
<polygon fill="#fb8072" stroke="black" points="305.71,-252 196.29,-252 196.29,-216 305.71,-216 305.71,-252"/>
<text text-anchor="middle" x="251" y="-229.8" font-family="Times,serif" font-size="14.00">IconComponent </text>
</g>
<!-- SharedModule&#45;&gt;IconComponent  -->
<g id="edge5" class="edge">
<title>SharedModule&#45;&gt;IconComponent </title>
<path fill="none" stroke="black" stroke-dasharray="5,2" d="M251,-187.11C251,-187.11 251,-205.99 251,-205.99"/>
<polygon fill="black" stroke="black" points="247.5,-205.99 251,-215.99 254.5,-205.99 247.5,-205.99"/>
</g>
<!-- NavbarComponent  -->
<g id="node7" class="node">
<title>NavbarComponent </title>
<polygon fill="#fb8072" stroke="black" points="178.03,-252 51.97,-252 51.97,-216 178.03,-216 178.03,-252"/>
<text text-anchor="middle" x="115" y="-229.8" font-family="Times,serif" font-size="14.00">NavbarComponent </text>
</g>
<!-- SharedModule&#45;&gt;NavbarComponent  -->
<g id="edge6" class="edge">
<title>SharedModule&#45;&gt;NavbarComponent </title>
<path fill="none" stroke="black" stroke-dasharray="5,2" d="M201.69,-175C156.92,-175 97.83,-175 97.83,-175 97.83,-175 97.83,-205.98 97.83,-205.98"/>
<polygon fill="black" stroke="black" points="94.33,-205.98 97.83,-215.98 101.33,-205.98 94.33,-205.98"/>
</g>
</g>
</svg>
