<?xml version="1.0" encoding="UTF-8" standalone="no"?>
<!DOCTYPE svg PUBLIC "-//W3C//DTD SVG 1.1//EN"
 "http://www.w3.org/Graphics/SVG/1.1/DTD/svg11.dtd">
<!-- Generated by graphviz version 2.47.0 (20210316.0004)
 -->
<!-- Title: dependencies Pages: 1 -->
<svg width="830pt" height="211pt"
 viewBox="0.00 0.00 830.00 211.00" xmlns="http://www.w3.org/2000/svg" xmlns:xlink="http://www.w3.org/1999/xlink">
<g id="graph0" class="graph" transform="scale(1 1) rotate(0) translate(4 207)">
<title>dependencies</title>
<polygon fill="white" stroke="transparent" points="-4,4 -4,-207 826,-207 826,4 -4,4"/>
<text text-anchor="start" x="390.01" y="-42.4" font-family="Times-12" font-weight="bold" font-size="14.00">Legend</text>
<polygon fill="#ffffb3" stroke="transparent" points="177,-10 177,-30 197,-30 197,-10 177,-10"/>
<text text-anchor="start" x="200.63" y="-15.4" font-family="Times-12" font-size="14.00"> &#160;Declarations</text>
<polygon fill="#8dd3c7" stroke="transparent" points="290,-10 290,-30 310,-30 310,-10 290,-10"/>
<text text-anchor="start" x="313.73" y="-15.4" font-family="Times-12" font-size="14.00"> &#160;Module</text>
<polygon fill="#80b1d3" stroke="transparent" points="376,-10 376,-30 396,-30 396,-10 376,-10"/>
<text text-anchor="start" x="399.78" y="-15.4" font-family="Times-12" font-size="14.00"> &#160;Bootstrap</text>
<polygon fill="#fdb462" stroke="transparent" points="473,-10 473,-30 493,-30 493,-10 473,-10"/>
<text text-anchor="start" x="496.67" y="-15.4" font-family="Times-12" font-size="14.00"> &#160;Providers</text>
<polygon fill="#fb8072" stroke="transparent" points="569,-10 569,-30 589,-30 589,-10 569,-10"/>
<text text-anchor="start" x="592.73" y="-15.4" font-family="Times-12" font-size="14.00"> &#160;Exports</text>
<g id="clust1" class="cluster">
<title>cluster_ProductsModule</title>
<polygon fill="none" stroke="black" stroke-dasharray="1,5" points="8,-70 8,-195 814,-195 814,-70 8,-70"/>
</g>
<g id="clust6" class="cluster">
<title>cluster_ProductsModule_imports</title>
<polygon fill="none" stroke="black" points="520,-78 520,-130 806,-130 806,-78 520,-78"/>
</g>
<g id="clust2" class="cluster">
<title>cluster_ProductsModule_declarations</title>
<polygon fill="none" stroke="black" points="16,-78 16,-130 512,-130 512,-78 16,-78"/>
</g>
<!-- ListProductsComponent -->
<g id="node1" class="node">
<title>ListProductsComponent</title>
<polygon fill="#ffffb3" stroke="black" points="504.1,-122 351.9,-122 351.9,-86 504.1,-86 504.1,-122"/>
<text text-anchor="middle" x="428" y="-99.8" font-family="Times,serif" font-size="14.00">ListProductsComponent</text>
</g>
<!-- ProductsModule -->
<g id="node4" class="node">
<title>ProductsModule</title>
<polygon fill="#8dd3c7" stroke="black" points="482.04,-187 479.04,-191 458.04,-191 455.04,-187 373.96,-187 373.96,-151 482.04,-151 482.04,-187"/>
<text text-anchor="middle" x="428" y="-164.8" font-family="Times,serif" font-size="14.00">ProductsModule</text>
</g>
<!-- ListProductsComponent&#45;&gt;ProductsModule -->
<g id="edge1" class="edge">
<title>ListProductsComponent&#45;&gt;ProductsModule</title>
<path fill="none" stroke="black" d="M428,-122.11C428,-122.11 428,-140.99 428,-140.99"/>
<polygon fill="black" stroke="black" points="424.5,-140.99 428,-150.99 431.5,-140.99 424.5,-140.99"/>
</g>
<!-- ProductsComponent -->
<g id="node2" class="node">
<title>ProductsComponent</title>
<polygon fill="#ffffb3" stroke="black" points="334.33,-122 203.67,-122 203.67,-86 334.33,-86 334.33,-122"/>
<text text-anchor="middle" x="269" y="-99.8" font-family="Times,serif" font-size="14.00">ProductsComponent</text>
</g>
<!-- ProductsComponent&#45;&gt;ProductsModule -->
<g id="edge2" class="edge">
<title>ProductsComponent&#45;&gt;ProductsModule</title>
<path fill="none" stroke="black" d="M269,-122.02C269,-139.37 269,-163 269,-163 269,-163 363.73,-163 363.73,-163"/>
<polygon fill="black" stroke="black" points="363.73,-166.5 373.73,-163 363.73,-159.5 363.73,-166.5"/>
</g>
<!-- TableProductsComponent -->
<g id="node3" class="node">
<title>TableProductsComponent</title>
<polygon fill="#ffffb3" stroke="black" points="186.2,-122 23.8,-122 23.8,-86 186.2,-86 186.2,-122"/>
<text text-anchor="middle" x="105" y="-99.8" font-family="Times,serif" font-size="14.00">TableProductsComponent</text>
</g>
<!-- TableProductsComponent&#45;&gt;ProductsModule -->
<g id="edge3" class="edge">
<title>TableProductsComponent&#45;&gt;ProductsModule</title>
<path fill="none" stroke="black" d="M105,-122.28C105,-143.32 105,-175 105,-175 105,-175 363.94,-175 363.94,-175"/>
<polygon fill="black" stroke="black" points="363.94,-178.5 373.94,-175 363.94,-171.5 363.94,-178.5"/>
</g>
<!-- ProductsRoutingModule -->
<g id="node5" class="node">
<title>ProductsRoutingModule</title>
<polygon fill="#8dd3c7" stroke="black" points="797.66,-122 794.66,-126 773.66,-126 770.66,-122 644.34,-122 644.34,-86 797.66,-86 797.66,-122"/>
<text text-anchor="middle" x="721" y="-99.8" font-family="Times,serif" font-size="14.00">ProductsRoutingModule</text>
</g>
<!-- ProductsRoutingModule&#45;&gt;ProductsModule -->
<g id="edge4" class="edge">
<title>ProductsRoutingModule&#45;&gt;ProductsModule</title>
<path fill="none" stroke="black" d="M721,-122.28C721,-143.32 721,-175 721,-175 721,-175 492.08,-175 492.08,-175"/>
<polygon fill="black" stroke="black" points="492.08,-171.5 482.08,-175 492.08,-178.5 492.08,-171.5"/>
</g>
<!-- SharedModule -->
<g id="node6" class="node">
<title>SharedModule</title>
<polygon fill="#8dd3c7" stroke="black" points="626.42,-122 623.42,-126 602.42,-126 599.42,-122 527.58,-122 527.58,-86 626.42,-86 626.42,-122"/>
<text text-anchor="middle" x="577" y="-99.8" font-family="Times,serif" font-size="14.00">SharedModule</text>
</g>
<!-- SharedModule&#45;&gt;ProductsModule -->
<g id="edge5" class="edge">
<title>SharedModule&#45;&gt;ProductsModule</title>
<path fill="none" stroke="black" d="M577,-122.02C577,-139.37 577,-163 577,-163 577,-163 492.21,-163 492.21,-163"/>
<polygon fill="black" stroke="black" points="492.21,-159.5 482.21,-163 492.21,-166.5 492.21,-159.5"/>
</g>
</g>
</svg>
